<?xml version="1.0" encoding="utf-8"?>
<!-- Generator: Adobe Illustrator 16.0.4, SVG Export Plug-In . SVG Version: 6.00 Build 0)  -->
<!DOCTYPE svg PUBLIC "-//W3C//DTD SVG 1.1//EN" "http://www.w3.org/Graphics/SVG/1.1/DTD/svg11.dtd">
<svg version="1.1" id="Layer_1" xmlns="http://www.w3.org/2000/svg" xmlns:xlink="http://www.w3.org/1999/xlink" x="0px" y="0px"
	 width="585px" height="156px" viewBox="0 0 585 156" enable-background="new 0 0 585 156" xml:space="preserve">
<rect x="49" y="60.2" fill="#FFFFFF" stroke="#000000" stroke-miterlimit="10" width="100" height="32.8"/>
<text transform="matrix(1 0 0 1 74.6792 80.0601)" font-family="'MyriadPro-Regular'" font-size="12">Customer</text>
<ellipse fill="none" stroke="#000000" stroke-miterlimit="10" cx="50.9" cy="26.2" rx="39.4" ry="14.3"/>
<text transform="matrix(1 0 0 1 41.0103 29.771)" font-family="'MyriadPro-Regular'" font-size="12">SSN</text>
<line fill="none" stroke="#000000" stroke-miterlimit="10" x1="87.8" y1="60.2" x2="50.9" y2="40.5"/>
<ellipse fill="none" stroke="#000000" stroke-miterlimit="10" cx="147.4" cy="26.2" rx="39.4" ry="14.3"/>
<text transform="matrix(1 0 0 1 129.7031 29.771)" font-family="'MyriadPro-Regular'" font-size="12">Custno</text>
<line fill="none" stroke="#000000" stroke-miterlimit="10" x1="147.5" y1="40.5" x2="118" y2="60.2"/>
<line fill="none" stroke="#000000" stroke-miterlimit="10" x1="38.3" y1="32.3" x2="63" y2="32.3"/>
<line fill="none" stroke="#000000" stroke-miterlimit="10" x1="128.7" y1="32.3" x2="166" y2="32.3"/>
<ellipse fill="none" stroke="#000000" stroke-miterlimit="10" cx="51.2" cy="127.1" rx="39.4" ry="14.3"/>
<text transform="matrix(1 0 0 1 36.3638 130.6206)" font-family="'MyriadPro-Regular'" font-size="12">Name</text>
<line fill="none" stroke="#000000" stroke-miterlimit="10" x1="86" y1="92.9" x2="50.7" y2="112.8"/>
<ellipse fill="none" stroke="#000000" stroke-miterlimit="10" cx="148.8" cy="127.1" rx="39.4" ry="14.3"/>
<text transform="matrix(1 0 0 1 127.9897 130.6206)" font-family="'MyriadPro-Regular'" font-size="12">Regdate</text>
<line fill="none" stroke="#000000" stroke-miterlimit="10" x1="149" y1="112.8" x2="125.3" y2="92.9"/>
<rect x="184.3" y="62.4" transform="matrix(0.6945 -0.7195 0.7195 0.6945 5.5808 166.0876)" fill="none" stroke="#000000" stroke-miterlimit="10" width="28.1" height="28.1"/>
<rect x="247.3" y="60" fill="#FFFFFF" stroke="#000000" stroke-miterlimit="10" width="100" height="32.8"/>
<text transform="matrix(1 0 0 1 279.354 79.9238)" font-family="'MyriadPro-Regular'" font-size="12">Invoice</text>
<ellipse fill="none" stroke="#000000" stroke-miterlimit="10" cx="249.4" cy="26.1" rx="39.4" ry="14.3"/>
<text transform="matrix(1 0 0 1 229.4961 29.6348)" font-family="'MyriadPro-Regular'" font-size="12">Number</text>
<line fill="none" stroke="#000000" stroke-miterlimit="10" x1="286.3" y1="60" x2="249.4" y2="40.4"/>
<ellipse fill="none" stroke="#000000" stroke-miterlimit="10" cx="343.4" cy="26.1" rx="39.4" ry="14.3"/>
<text transform="matrix(1 0 0 1 318.4258 29.6348)" font-family="'MyriadPro-Regular'" font-size="12">Comment</text>
<line fill="none" stroke="#000000" stroke-miterlimit="10" x1="342.2" y1="40.4" x2="312.7" y2="60"/>
<line fill="none" stroke="#000000" stroke-miterlimit="10" x1="225.5" y1="32.2" x2="272.5" y2="32.2"/>
<ellipse fill="none" stroke="#000000" stroke-miterlimit="10" cx="297.6" cy="127" rx="39.4" ry="14.3"/>
<text transform="matrix(1 0 0 1 286.9165 130.4844)" font-family="'MyriadPro-Regular'" font-size="12">Paid</text>
<line fill="none" stroke="#000000" stroke-miterlimit="10" x1="298.8" y1="92.9" x2="297.6" y2="112.7"/>
<line fill="none" stroke="#000000" stroke-miterlimit="10" x1="149" y1="76.5" x2="178.5" y2="76.5"/>
<line fill="none" stroke="#000000" stroke-miterlimit="10" x1="216" y1="77.8" x2="247.5" y2="77.8"/>
<line fill="none" stroke="#000000" stroke-miterlimit="10" x1="247.5" y1="74.3" x2="216" y2="74.3"/>
<text transform="matrix(1 0 0 1 151.8335 71.8335)" font-family="'MyriadPro-Regular'" font-size="12">1</text>
<text transform="matrix(1 0 0 1 235.833 70.0005)" font-family="'MyriadPro-Regular'" font-size="12">N</text>
<rect x="445.6" y="59.9" fill="#FFFFFF" stroke="#000000" stroke-miterlimit="10" width="100" height="32.8"/>
<text transform="matrix(1 0 0 1 467.6504 79.7881)" font-family="'MyriadPro-Regular'" font-size="12">Invoicerow</text>
<ellipse fill="none" stroke="#000000" stroke-miterlimit="10" cx="447.7" cy="26" rx="39.4" ry="14.3"/>
<text transform="matrix(1 0 0 1 427.792 29.499)" font-family="'MyriadPro-Regular'" font-size="12">Number</text>
<line fill="none" stroke="#000000" stroke-miterlimit="10" x1="484.6" y1="59.9" x2="447.7" y2="40.3"/>
<ellipse fill="none" stroke="#000000" stroke-miterlimit="10" cx="534.8" cy="26" rx="39.4" ry="14.3"/>
<text transform="matrix(1 0 0 1 523.6934 29.499)" font-family="'MyriadPro-Regular'" font-size="12">Cost</text>
<line fill="none" stroke="#000000" stroke-miterlimit="10" x1="540.5" y1="40.3" x2="511" y2="59.9"/>
<line fill="none" stroke="#000000" stroke-miterlimit="10" x1="423.8" y1="32.1" x2="470.8" y2="32.1"/>
<ellipse fill="none" stroke="#000000" stroke-miterlimit="10" cx="442.9" cy="126.8" rx="39.4" ry="14.3"/>
<text transform="matrix(1 0 0 1 408.2783 130.3486)" font-family="'MyriadPro-Regular'" font-size="12">ProductName</text>
<line fill="none" stroke="#000000" stroke-miterlimit="10" x1="516.8" y1="92.7" x2="533.5" y2="112.5"/>
<line fill="none" stroke="#000000" stroke-miterlimit="10" x1="347.3" y1="76.3" x2="376.8" y2="76.3"/>
<line fill="none" stroke="#000000" stroke-miterlimit="10" x1="414.3" y1="77.7" x2="445.8" y2="77.7"/>
<line fill="none" stroke="#000000" stroke-miterlimit="10" x1="445.8" y1="74.2" x2="414.3" y2="74.2"/>
<text transform="matrix(1 0 0 1 350.1289 71.6978)" font-family="'MyriadPro-Regular'" font-size="12">1</text>
<text transform="matrix(1 0 0 1 434.1289 69.8647)" font-family="'MyriadPro-Regular'" font-size="12">N</text>
<rect x="382.6" y="62.2" transform="matrix(0.6945 -0.7195 0.7195 0.6945 66.3116 308.6985)" fill="none" stroke="#000000" stroke-miterlimit="10" width="28.1" height="28.1"/>
<rect x="385.9" y="65.5" transform="matrix(0.6945 -0.7195 0.7195 0.6945 66.3084 308.6941)" fill="none" stroke="#000000" stroke-miterlimit="10" width="21.5" height="21.5"/>
<rect x="449.2" y="62.8" fill="none" stroke="#000000" stroke-miterlimit="10" width="93.8" height="27"/>
<ellipse fill="none" stroke="#000000" stroke-miterlimit="10" cx="531.7" cy="127" rx="39.4" ry="14.3"/>
<text transform="matrix(1 0 0 1 509.083 130.4844)" font-family="'MyriadPro-Regular'" font-size="12">Company</text>
<line fill="none" stroke="#000000" stroke-miterlimit="10" x1="484.6" y1="92.8" x2="442.9" y2="112.5"/>
</svg>
